<?xml version="1.0" encoding="UTF-8" standalone="no"?>
<!-- Created with Inkscape (http://www.inkscape.org/) -->

<svg
   width="1024"
   height="1024"
   viewBox="0 0 270.93333 270.93334"
   version="1.1"
   id="svg846"
   xmlns="http://www.w3.org/2000/svg"
   xmlns:svg="http://www.w3.org/2000/svg">
  <defs
     id="defs843" />
  <g
     id="layer1">
    <g
       id="g16829"
       transform="matrix(1.5185179,0,0,1.5185179,-29.316454,-87.207644)">
      <g
         id="g5805"
         transform="matrix(1,0,0,-1,9.6284289,296.20343)">
        <g
           id="path991"
           transform="matrix(0.26458333,0,0,-0.26458333,-9.6284289,296.20343)">
          <path
             id="path1063"
             style="color:#000000;fill:#000000;stroke-width:0.999999px;-inkscape-stroke:none"
             d="m 412.19727,224.08203 c -23.05992,22.5546 -16.92533,21.61841 -70.53321,70.75586 -69.8592,64.03355 -163.0841,122.54247 -209.46679,196.25781 -63.906275,101.56532 -59.649559,221.4732 16.00781,292.12891 73.07783,57.69749 195.74963,44.91578 243.92383,-31.7793 -6.47531,17.99143 -11.68769,33.54133 -21.56641,48.05664 -16.89832,24.82958 -38.72055,46.71287 -62.9373,64.4783 -14.07192,10.32317 -46.71902,23.63498 -46.71902,23.63498 h 151.38288 151.29932 c 0,0 -32.66594,-13.30951 -46.74787,-23.63303 -24.23183,-17.76446 -46.07037,-39.64778 -62.98504,-64.48025 -9.88757,-14.51596 -15.10845,-30.06835 -21.59375,-48.0625 48.17156,76.70041 170.84799,89.48415 243.92773,31.78516 C 751.84683,712.5689 756.10161,592.66102 692.19531,491.0957 645.81265,417.38036 552.58967,358.87144 482.73047,294.83789 429.12259,245.70044 435.25718,246.63663 412.19727,224.08203 Z m 0,462.30469 c 0.002,0.0353 0.008,0.0682 0.01,0.10351 -3e-4,-10e-4 -0.0135,-0.0541 -0.0137,-0.0547 9.3e-4,-0.0166 0.003,-0.0322 0.004,-0.0488 z" />
          <path
             style="color:#000000;fill:#000000;-inkscape-stroke:none"
             d="m 412.19727,223.38281 -0.34961,0.3418 c -23.08665,22.58074 -16.92534,21.61744 -70.52149,70.74414 -69.80763,63.98628 -163.07277,122.4914 -209.55273,196.36133 -64.006009,101.72383 -59.766849,221.91791 16.08984,292.75976 l 0.0156,0.0137 0.0156,0.0137 c 45.33333,35.79224 109.644,44.54953 163.58008,27.84961 52.47584,-16.2478 95.04834,-56.74273 100.72266,-119.80469 5.67431,63.06196 48.24682,103.55689 100.72265,119.80469 53.93608,16.69992 118.24674,7.94263 163.58008,-27.84961 l 0.0156,-0.0137 0.0156,-0.0137 C 752.38796,712.74799 756.62517,592.5539 692.61914,490.83008 646.13921,416.96015 552.87599,358.45504 483.06836,294.46875 c -53.59615,-49.1267 -47.43485,-48.1634 -70.52149,-70.74414 z m 0,1.41797 c 22.50129,22.07424 16.93075,21.58349 70.19531,70.40625 69.91062,64.08069 163.0936,122.59369 209.3789,196.1543 63.80184,101.3993 59.534,221.01099 -15.9082,291.48242 -45.03355,35.54605 -109.02756,44.2703 -162.64844,27.66797 -53.62696,-16.60422 -96.84715,-58.4553 -100.51757,-124.15235 h -1 C 408.02683,752.05642 364.80666,793.9075 311.17969,810.51172 257.55881,827.11405 193.5648,818.3898 148.53125,782.84375 73.089055,712.37232 68.819285,592.76063 132.62109,491.36133 c 46.28533,-73.5606 139.47023,-132.07361 209.38086,-196.1543 53.26456,-48.82276 47.69401,-48.33201 70.19532,-70.40625 z"
             id="path1065" />
        </g>
      </g>
    </g>
    <g
       aria-label="Q"
       id="text17083"
       style="font-size:201.435px;line-height:1.25;stroke-width:0.377689">
      <path
         d="m 137.19422,66.320903 c -16.13054,0 -29.90051,5.245703 -41.309913,15.737109 -12.327402,11.540547 -18.491103,26.556368 -18.491103,45.047478 0,20.45824 7.212842,36.5232 21.638525,48.19489 10.884831,8.65541 23.408951,12.98312 37.572351,12.98312 5.50799,0 10.68812,-0.65571 15.54039,-1.96714 6.1637,10.09798 10.42583,16.39282 12.7864,18.88453 5.37685,6.29485 13.56964,8.65669 20.12677,8.65669 10.62255,-0.26228 19.27796,-7.9997 25.96623,-23.21224 l -4.131,-2.36057 c -6.95055,7.73742 -13.37654,11.6717 -19.27795,11.80284 -5.50799,0 -13.8975,-3.27984 -20.71691,-11.41068 -0.91799,-1.04914 -2.4917,-3.01628 -4.72113,-5.90142 14.68797,-6.81941 24.72037,-17.90096 30.09722,-33.24464 2.49171,-7.0817 3.73756,-14.6224 3.73756,-22.6221 0,-21.11395 -7.40955,-37.31006 -22.22866,-48.588321 -10.62255,-7.999697 -22.81881,-11.999546 -36.58878,-11.999546 z m -2.95071,96.389797 c -7.34399,0.13114 -13.96669,4.3277 -19.8681,12.58968 -10.09798,-8.91769 -15.146967,-24.91709 -15.146967,-47.99818 0,-35.67078 11.737257,-54.161883 35.211777,-55.473309 h 2.55728 c 24.65481,0.262285 37.04778,18.425532 37.17893,54.489739 -0.13115,24.91709 -5.77028,41.70334 -16.9174,50.35875 -7.99969,-9.17998 -15.67153,-13.83554 -23.01552,-13.96668 z m 2.55728,20.06481 c -6.81941,0 -12.7864,-1.44257 -17.90096,-4.3277 4.98342,-5.50799 9.77012,-8.32756 14.36011,-8.4587 5.24571,0.13114 10.36027,3.80313 15.34368,11.01598 -3.54085,1.18028 -7.47512,1.77042 -11.80283,1.77042 z"
         style="font-family:'Abhaya Libre Medium';-inkscape-font-specification:'Abhaya Libre Medium, ';fill:#ffffff"
         id="path2158" />
    </g>
  </g>
</svg>
